<svg width="370.16679528778167" height="155.08501865265873"
    viewBox="0 0 370.16679528778167 155.08501865265873" class="css-1j8o68f">
    <defs id="SvgjsDefs1029"></defs>
    <g id="SvgjsG1030" featurekey="symbolFeature-0"
        transform="matrix(1.0366270169158764,0,0,1.0366270169158764,-1.4512779225426833,25.1808949373991)"
        fill="#292929">
        <path xmlns="http://www.w3.org/2000/svg"
            d="M30.1,42.5l2.7-12.4c0-0.1,0-0.3-0.1-0.4c-0.1-0.1-0.2-0.2-0.4-0.2H10l-1.2-4.4c-0.1-0.4-0.5-0.7-0.9-0.7H2.4  c-0.5,0-1,0.4-1,1c0,0.5,0.4,1,1,1h4.7c0,0,5.6,20.3,5.7,20.4c-0.2,0.4-0.3,0.8-0.3,1.2c0,1.5,1.2,2.7,2.7,2.7s2.7-1.2,2.7-2.7  c0-0.3,0-0.5-0.1-0.8h8.7c-0.1,0.2-0.1,0.5-0.1,0.8c0,1.5,1.2,2.7,2.7,2.7c1.5,0,2.7-1.2,2.7-2.7c0-1.3-1-2.4-2.2-2.7  c-0.1-0.1-15.2-0.1-15.2-0.1l-0.7-2.4h15.9C29.8,42.9,30,42.7,30.1,42.5z M29.1,47c0.6,0,1,0.5,1,1c0,0.6-0.5,1-1,1  c-0.6,0-1-0.5-1-1C28.1,47.4,28.6,47,29.1,47z M15.2,47c0.6,0,1,0.5,1,1c0,0.6-0.5,1-1,1c-0.6,0-1-0.5-1-1  C14.2,47.4,14.7,47,15.2,47z"></path>
        <path xmlns="http://www.w3.org/2000/svg"
            d="M98.6,72.4c-0.3-1.3-0.3-3.4-0.3-5.8c0-7.7,0.1-19.4-8.8-33.3c0,0,0,0,0,0l-5.4-8.5c-0.9-1.5-2.4-2.5-4.1-2.9  c-1.7-0.4-3.5-0.1-5,0.9c0,0-0.1,0-0.1,0.1c-0.9,0.6-1.6,1.3-2.1,2.2c-0.8-0.6-1.7-1-2.6-1.2c-1.8-0.4-3.6-0.1-5.1,0.9  c-0.1,0-0.1,0.1-0.2,0.1c-1.1,0.8-2,1.8-2.5,3.1c-1.9-0.9-4.2-0.8-6.1,0.3c-0.1,0-0.2,0.1-0.3,0.1c-0.8,0.5-1.5,1.2-2,2l-8.7-13.7  c-1-1.6-2.7-2.8-4.6-3.2c-1.9-0.4-3.8-0.1-5.5,1c0,0,0,0-0.1,0.1c0,0-0.1,0-0.1,0c-1.6,1-2.8,2.7-3.2,4.6c-0.4,1.9-0.1,3.8,1,5.5  l14.5,22.9c-0.7,0.3-1.4,0.8-2.1,1.3c-0.3,0.2-0.7,0.5-1,0.7c0,0,0,0,0,0c-1.7,1.1-2.9,2.8-3.4,4.8s-0.1,4.1,1,5.8l5.1,8  c0.1,0.1,0.2,0.3,0.3,0.4c6.1,8.5,13.7,10.7,18.8,12.2c1.4,0.4,2.6,0.8,3.5,1.2c0.2,0.1,0.3,0.1,0.5,0.1c0,0,0,0,0,0  c2.4,0.5,3.1,1.7,4.4,3.8l0.5,0.7c0.4,0.6,1,0.9,1.7,0.9c0.4,0,0.7-0.1,1.1-0.3c0.9-0.6,1.2-1.8,0.6-2.7l-0.4-0.7  c-1.4-2.3-2.9-4.7-6.9-5.6c0,0,0,0,0,0c-1.1-0.5-2.3-0.8-3.8-1.2c-5.2-1.5-12.2-3.6-17.7-12.3l0,0L45.4,58c-0.5-0.8-0.7-1.8-0.5-2.8  c0.2-1,0.8-1.8,1.6-2.3c0,0,0,0,0,0c0.4-0.3,0.8-0.5,1.1-0.8c0.7-0.5,1.7-1.1,1.9-1.2c0,0,0.1,0.1,0.4,0.4l5.9,9.3  c0.4,0.6,1,0.9,1.7,0.9c0.4,0,0.7-0.1,1.1-0.3c0.9-0.6,1.2-1.8,0.6-2.7l-5.9-9.3c0,0,0,0,0,0c0,0,0,0,0,0l-17-26.7  c-0.5-0.7-0.6-1.6-0.4-2.5c0.2-0.9,0.7-1.6,1.5-2.1c0,0,0,0,0.1-0.1c0,0,0.1,0,0.1,0c0.7-0.5,1.6-0.6,2.5-0.4  c0.9,0.2,1.6,0.7,2.1,1.5l12,18.9l0,0l0,0l5.6,8.8c0.4,0.6,1,0.9,1.7,0.9c0.4,0,0.7-0.1,1.1-0.3c0.9-0.6,1.2-1.8,0.6-2.7l-5.6-8.8  c-0.8-1.3-0.4-3,0.9-3.9c0,0,0,0,0,0c1.3-0.8,3-0.4,3.9,0.9l5.6,8.8c0.4,0.6,1,0.9,1.7,0.9c0.4,0,0.7-0.1,1.1-0.3  c0.9-0.6,1.2-1.8,0.6-2.7L66.5,32c0,0,0,0,0,0c-0.4-0.6-0.5-1.4-0.4-2.1c0.2-0.7,0.6-1.4,1.2-1.8c0,0,0,0,0,0  c0.6-0.4,1.4-0.5,2.1-0.4c0.7,0.2,1.4,0.6,1.8,1.2l1.9,2.9c0,0,0,0,0,0c0,0,0,0,0,0l3.8,5.9c0.4,0.6,1,0.9,1.7,0.9  c0.4,0,0.7-0.1,1.1-0.3c0.9-0.6,1.2-1.8,0.6-2.7l-3.8-5.9l0,0c-0.4-0.6-0.5-1.3-0.3-2c0.2-0.7,0.6-1.3,1.1-1.6c0,0,0,0,0,0  c0.6-0.4,1.3-0.5,2-0.3c0.7,0.2,1.3,0.6,1.6,1.1l5.4,8.5c8.3,13,8.2,24,8.2,31.2c0,2.8,0,5,0.4,6.7c0.2,0.9,1,1.5,1.9,1.5  c0.2,0,0.3,0,0.5-0.1C98.2,74.5,98.9,73.4,98.6,72.4z"></path>
    </g>
    <g id="SvgjsG1031" featurekey="nameFeature-0"
        transform="matrix(3.1490010125155847,0,0,3.1490010125155847,117.1067759560417,-33.25345501665937)"
        fill="#292929">
        <path
            d="M 438.649 145.169 L 438.649 129.856 L 442.86 129.856 C 444.43666666666667 129.856 445.5806666666667 129.99266666666665 446.292 130.266 C 447.27599999999995 130.64933333333335 448.11199999999997 131.40366666666668 448.8 132.529 C 449.4886666666667 133.655 449.833 135.266 449.833 137.362 C 449.833 138.87533333333334 449.6573333333333 140.16266666666667 449.306 141.224 C 448.95533333333333 142.286 448.46566666666666 143.13166666666666 447.837 143.761 C 447.39033333333333 144.207 446.791 144.55333333333334 446.039 144.8 C 445.287 145.04600000000002 444.25 145.169 442.928 145.169 L 438.649 145.169 Z M 435.997 147.534 L 443.229 147.534 C 444.44166666666666 147.534 445.515 147.42 446.449 147.192 C 447.38300000000004 146.964 448.18033333333335 146.629 448.841 146.187 C 449.50233333333335 145.745 450.111 145.139 450.667 144.369 C 451.22299999999996 143.599 451.67866666666663 142.626 452.034 141.45 C 452.38933333333335 140.274 452.567 138.925 452.567 137.403 C 452.567 135.61633333333333 452.305 134.02833333333334 451.781 132.639 C 451.257 131.249 450.46633333333335 130.10733333333334 449.409 129.214 C 448.59766666666667 128.52133333333333 447.61766666666665 128.04266666666666 446.469 127.778 C 445.649 127.58666666666667 444.45966666666664 127.491 442.901 127.491 L 435.997 127.491 L 435.997 147.534 Z M 416.143 137.813 C 416.143 134.79633333333334 416.81966666666665 132.643 418.173 131.353 C 419.5263333333333 130.06366666666668 421.142 129.419 423.02 129.419 C 424.34133333333335 129.419 425.533 129.75400000000002 426.595 130.424 C 427.657 131.094 428.46366666666665 132.03733333333332 429.015 133.254 C 429.5663333333333 134.47066666666666 429.842 135.89466666666667 429.842 137.526 C 429.842 140.10533333333333 429.197 142.097 427.907 143.501 C 426.61766666666665 144.90433333333334 424.975 145.606 422.979 145.606 C 421.019 145.606 419.38966666666664 144.911 418.091 143.521 C 416.7923333333333 142.131 416.143 140.22833333333332 416.143 137.813 Z M 413.408 137.772 C 413.408 139.53133333333332 413.791 141.19933333333333 414.557 142.776 C 415.32233333333335 144.35266666666666 416.448 145.59699999999998 417.934 146.509 C 419.4193333333333 147.42033333333333 421.1053333333333 147.876 422.992 147.876 C 424.73333333333335 147.876 426.356 147.46366666666668 427.86 146.639 C 429.36333333333334 145.81366666666668 430.5253333333333 144.59900000000002 431.346 142.995 C 432.166 141.391 432.576 139.57266666666666 432.576 137.54 C 432.576 135.53466666666668 432.1863333333333 133.74133333333333 431.407 132.16 C 430.62766666666664 130.57866666666666 429.49533333333335 129.346 428.01 128.462 C 426.524 127.57799999999999 424.856 127.136 423.006 127.136 C 420.18066666666664 127.136 417.87466666666666 128.077 416.088 129.959 C 414.30133333333333 131.841 413.408 134.44533333333334 413.408 137.772 Z M 394.371 137.813 C 394.371 134.79633333333334 395.04766666666666 132.643 396.401 131.353 C 397.7543333333333 130.06366666666668 399.36966666666666 129.419 401.247 129.419 C 402.569 129.419 403.761 129.75400000000002 404.823 130.424 C 405.88433333333336 131.094 406.69100000000003 132.03733333333332 407.243 133.254 C 407.7943333333333 134.47066666666666 408.07 135.89466666666667 408.07 137.526 C 408.07 140.10533333333333 407.425 142.097 406.135 143.501 C 404.84566666666666 144.90433333333334 403.2026666666667 145.606 401.206 145.606 C 399.24666666666667 145.606 397.61766666666665 144.911 396.319 143.521 C 395.0203333333333 142.131 394.371 140.22833333333332 394.371 137.813 Z M 391.636 137.772 C 391.636 139.53133333333332 392.019 141.19933333333333 392.785 142.776 C 393.55033333333336 144.35266666666666 394.676 145.59699999999998 396.162 146.509 C 397.64733333333334 147.42033333333333 399.3333333333333 147.876 401.22 147.876 C 402.96066666666667 147.876 404.583 147.46366666666668 406.087 146.639 C 407.591 145.81366666666668 408.75333333333333 144.59900000000002 409.574 142.995 C 410.394 141.391 410.804 139.57266666666666 410.804 137.54 C 410.804 135.53466666666668 410.41433333333333 133.74133333333333 409.635 132.16 C 408.85566666666665 130.57866666666666 407.72333333333336 129.346 406.238 128.462 C 404.752 127.57799999999999 403.084 127.136 401.234 127.136 C 398.40866666666665 127.136 396.10266666666666 128.077 394.316 129.959 C 392.52933333333334 131.841 391.636 134.44533333333334 391.636 137.772 Z M 369.517 147.534 L 372.224 147.534 L 376.476 132.263 C 376.65866666666665 131.61566666666667 376.8546666666667 130.83166666666668 377.064 129.911 C 377.12800000000004 130.20233333333334 377.3376666666667 130.98633333333333 377.693 132.263 L 381.918 147.534 L 384.474 147.534 L 389.97 127.491 L 387.304 127.491 L 384.16 140.37 C 383.75 142.01066666666665 383.4173333333333 143.46433333333331 383.162 144.731 C 382.8426666666667 142.51633333333334 382.323 140.15133333333333 381.603 137.636 L 378.732 127.491 L 375.533 127.491 L 371.719 141.026 C 371.62766666666664 141.354 371.32666666666665 142.589 370.816 144.731 C 370.57933333333335 143.373 370.297 142.006 369.969 140.63 L 366.92 127.491 L 364.199 127.491 L 369.517 147.534 Z M 345.769 147.534 L 348.312 147.534 L 348.312 131.784 L 358.839 147.534 L 361.56 147.534 L 361.56 127.491 L 359.017 127.491 L 359.017 143.227 L 348.49 127.491 L 345.769 127.491 L 345.769 147.534 Z M 327.181 147.534 L 342.138 147.534 L 342.138 145.169 L 329.833 145.169 L 329.833 138.347 L 340.921 138.347 L 340.921 135.995 L 329.833 135.995 L 329.833 129.856 L 341.673 129.856 L 341.673 127.491 L 327.181 127.491 L 327.181 147.534 Z M 308.511 147.534 L 323.468 147.534 L 323.468 145.169 L 311.163 145.169 L 311.163 138.347 L 322.251 138.347 L 322.251 135.995 L 311.163 135.995 L 311.163 129.856 L 323.003 129.856 L 323.003 127.491 L 308.511 127.491 L 308.511 147.534 Z M 290.928 136.337 L 290.928 129.706 L 297.272 129.706 C 298.758 129.706 299.84499999999997 130.01133333333334 300.533 130.622 C 301.221 131.2326666666667 301.565 132.012 301.565 132.96 C 301.565 133.60666666666668 301.38733333333334 134.20600000000002 301.032 134.758 C 300.6766666666667 135.30933333333334 300.15700000000004 135.71033333333335 299.473 135.961 C 298.7896666666667 136.21166666666667 297.84166666666664 136.337 296.629 136.337 L 290.928 136.337 Z M 288.276 147.534 L 290.928 147.534 L 290.928 138.634 L 294.004 138.634 C 294.688 138.634 295.1803333333333 138.66566666666665 295.481 138.729 C 295.891 138.82966666666667 296.2943333333333 139.00766666666667 296.691 139.263 C 297.0876666666667 139.51766666666668 297.5366666666667 139.964 298.038 140.602 C 298.53933333333333 141.24 299.17733333333337 142.16066666666666 299.952 143.364 L 302.604 147.534 L 305.94 147.534 L 302.454 142.079 C 301.76133333333337 141.01233333333334 301.02733333333333 140.12366666666668 300.252 139.413 C 299.88800000000003 139.085 299.355 138.75233333333333 298.653 138.415 C 300.57633333333337 138.15033333333332 301.998 137.53033333333335 302.918 136.555 C 303.83866666666665 135.58033333333333 304.299 134.382 304.299 132.96 C 304.299 131.85666666666668 304.02099999999996 130.84933333333333 303.465 129.938 C 302.909 129.02666666666667 302.16633333333334 128.391 301.237 128.031 C 300.307 127.671 298.949 127.491 297.163 127.491 L 288.276 127.491 L 288.276 147.534 Z M 275.832 139.673 L 281.725 139.673 L 281.725 143.405 C 281.1596666666667 143.90633333333335 280.33 144.37800000000001 279.236 144.82 C 278.1426666666667 145.262 277.02166666666665 145.483 275.873 145.483 C 274.5516666666667 145.483 273.303 145.19133333333335 272.127 144.608 C 270.951 144.02466666666666 270.05533333333335 143.13166666666666 269.44 141.929 C 268.82533333333333 140.72566666666665 268.518 139.23066666666665 268.518 137.444 C 268.518 135.99466666666666 268.77299999999997 134.65033333333335 269.283 133.411 C 269.58366666666666 132.691 270.00533333333334 132.03033333333332 270.548 131.429 C 271.09 130.827 271.80333333333334 130.34133333333335 272.688 129.972 C 273.572 129.60333333333335 274.62 129.419 275.832 129.419 C 276.844 129.419 277.7646666666667 129.59433333333334 278.594 129.945 C 279.42333333333335 130.29633333333334 280.0613333333333 130.76366666666667 280.508 131.347 C 280.95466666666664 131.93033333333335 281.3283333333333 132.73233333333334 281.629 133.753 L 284.022 133.097 C 283.67533333333336 131.74766666666667 283.1693333333333 130.65366666666668 282.504 129.815 C 281.83866666666665 128.97633333333332 280.9203333333333 128.32233333333332 279.749 127.853 C 278.5776666666667 127.38366666666667 277.26733333333334 127.149 275.818 127.149 C 273.822 127.149 272.05833333333334 127.55933333333333 270.527 128.38 C 268.9956666666667 129.20000000000002 267.82233333333335 130.45533333333333 267.007 132.146 C 266.19100000000003 133.83666666666664 265.783 135.65733333333333 265.783 137.608 C 265.783 139.57666666666668 266.1933333333333 141.35866666666666 267.014 142.954 C 267.834 144.54933333333335 269.04833333333335 145.76833333333335 270.657 146.611 C 272.2656666666667 147.45433333333332 274.0543333333333 147.876 276.023 147.876 C 277.4816666666667 147.876 278.90366666666665 147.614 280.289 147.09 C 281.6743333333333 146.566 283.01866666666666 145.78433333333334 284.322 144.745 L 284.322 137.307 L 275.832 137.321 L 275.832 139.673 Z M 251.355 147.534 L 254.008 147.534 L 254.008 127.491 L 251.355 127.491 L 251.355 147.534 Z M 235.807 139.304 L 238.008 133.425 C 238.47266666666667 132.15766666666667 238.83266666666668 130.88166666666666 239.088 129.597 C 239.398 130.681 239.87199999999999 132.06633333333335 240.51 133.753 L 242.602 139.304 L 235.807 139.304 Z M 230.024 147.534 L 232.84 147.534 L 235.041 141.464 L 243.422 141.464 L 245.76 147.534 L 248.781 147.534 L 240.578 127.491 L 237.721 127.491 L 230.024 147.534 Z M 212.652 141.095 C 212.68866666666665 142.43433333333334 213.05566666666667 143.63500000000002 213.753 144.697 C 214.45033333333333 145.759 215.412 146.55433333333332 216.638 147.083 C 217.86333333333334 147.61166666666668 219.383 147.876 221.197 147.876 C 222.62833333333333 147.876 223.91566666666665 147.614 225.059 147.09 C 226.203 146.566 227.08033333333333 145.83233333333334 227.691 144.889 C 228.30166666666668 143.94500000000002 228.607 142.94 228.607 141.874 C 228.607 140.79866666666666 228.329 139.84833333333333 227.773 139.023 C 227.21699999999998 138.19833333333332 226.35566666666665 137.517 225.189 136.979 C 224.387 136.61433333333332 222.90833333333333 136.18833333333333 220.753 135.701 C 218.597 135.21366666666665 217.264 134.73733333333334 216.754 134.272 C 216.23466666666667 133.80733333333333 215.975 133.215 215.975 132.495 C 215.975 131.66566666666668 216.34166666666667 130.957 217.075 130.369 C 217.809 129.781 218.97799999999998 129.487 220.582 129.487 C 222.12266666666667 129.487 223.287 129.81066666666666 224.075 130.458 C 224.86366666666666 131.10533333333333 225.32633333333334 132.06233333333333 225.463 133.329 L 228.006 133.138 C 227.96 131.962 227.63166666666666 130.909 227.021 129.979 C 226.4103333333333 129.04966666666667 225.53766666666667 128.34566666666666 224.403 127.867 C 223.26833333333332 127.38833333333334 221.95833333333334 127.149 220.473 127.149 C 219.12366666666668 127.149 217.89766666666668 127.377 216.795 127.833 C 215.69233333333332 128.28833333333333 214.85366666666667 128.956 214.279 129.836 C 213.705 130.71533333333335 213.418 131.661 213.418 132.673 C 213.418 133.59366666666668 213.65266666666668 134.42533333333333 214.122 135.168 C 214.59133333333332 135.91066666666669 215.30466666666666 136.53266666666667 216.262 137.034 C 217 137.42600000000002 218.28966666666668 137.84300000000002 220.131 138.285 C 221.97233333333332 138.727 223.16166666666666 139.053 223.699 139.263 C 224.53766666666667 139.58166666666668 225.13933333333333 139.97566666666668 225.504 140.445 C 225.86866666666666 140.91433333333333 226.051 141.46366666666665 226.051 142.093 C 226.051 142.71233333333333 225.86166666666665 143.284 225.483 143.808 C 225.105 144.33266666666665 224.52866666666665 144.74533333333332 223.754 145.046 C 222.97933333333333 145.34666666666666 222.086 145.497 221.074 145.497 C 219.9346666666667 145.497 218.90933333333334 145.29866666666666 217.998 144.902 C 217.08666666666667 144.5053333333333 216.41433333333333 143.986 215.981 143.344 C 215.54833333333332 142.70133333333334 215.27266666666665 141.87866666666667 215.154 140.876 L 212.652 141.095 Z M 193.306 147.534 L 195.849 147.534 L 195.849 131.784 L 206.376 147.534 L 209.097 147.534 L 209.097 127.491 L 206.554 127.491 L 206.554 143.227 L 196.027 127.491 L 193.306 127.491 L 193.306 147.534 Z M 173.489 137.813 C 173.489 134.79633333333334 174.16566666666668 132.643 175.519 131.353 C 176.87300000000002 130.06366666666668 178.4886666666667 129.419 180.366 129.419 C 181.68733333333336 129.419 182.87900000000002 129.75400000000002 183.941 130.424 C 185.003 131.094 185.80966666666666 132.03733333333332 186.361 133.254 C 186.91233333333332 134.47066666666666 187.188 135.89466666666667 187.188 137.526 C 187.188 140.10533333333333 186.54333333333332 142.097 185.254 143.501 C 183.964 144.90433333333334 182.321 145.606 180.325 145.606 C 178.36499999999998 145.606 176.73566666666667 144.911 175.437 143.521 C 174.13833333333335 142.131 173.489 140.22833333333332 173.489 137.813 Z M 170.755 137.772 C 170.755 139.53133333333332 171.13766666666666 141.19933333333333 171.903 142.776 C 172.66833333333332 144.35266666666666 173.79399999999998 145.59699999999998 175.28 146.509 C 176.76533333333333 147.42033333333333 178.45166666666668 147.876 180.339 147.876 C 182.07966666666667 147.876 183.702 147.46366666666668 185.206 146.639 C 186.70999999999998 145.81366666666668 187.87199999999999 144.59900000000002 188.692 142.995 C 189.51266666666666 141.391 189.923 139.57266666666666 189.923 137.54 C 189.923 135.53466666666668 189.53333333333333 133.74133333333333 188.754 132.16 C 187.97466666666668 130.57866666666666 186.842 129.346 185.356 128.462 C 183.87066666666666 127.57799999999999 182.20266666666666 127.136 180.352 127.136 C 177.52666666666667 127.136 175.22066666666666 128.077 173.434 129.959 C 171.648 131.841 170.755 134.44533333333334 170.755 137.772 Z M 155.434 145.169 L 155.434 138.278 L 160.069 138.278 C 161.345 138.278 162.32266666666666 138.38966666666667 163.002 138.613 C 163.68066666666667 138.83633333333333 164.21133333333333 139.22366666666667 164.594 139.775 C 164.97733333333335 140.32633333333334 165.169 140.97566666666668 165.169 141.723 C 165.169 142.36100000000002 165.03666666666666 142.924 164.772 143.412 C 164.508 143.89933333333335 164.17066666666668 144.27066666666667 163.76 144.526 C 163.35 144.78133333333332 162.8396666666667 144.96366666666665 162.229 145.073 C 161.883 145.137 161.28133333333335 145.169 160.424 145.169 L 155.434 145.169 Z M 155.434 135.913 L 155.434 129.856 L 159.44 129.856 C 160.88 129.856 161.89633333333333 129.94966666666667 162.489 130.137 C 163.08166666666665 130.32366666666667 163.53733333333332 130.67 163.856 131.176 C 164.17533333333333 131.68133333333333 164.335 132.26666666666665 164.335 132.932 C 164.335 133.63400000000001 164.16400000000002 134.21733333333333 163.822 134.682 C 163.48 135.14733333333334 162.97166666666666 135.48 162.297 135.68 C 161.787 135.83533333333335 160.94400000000002 135.913 159.768 135.913 L 155.434 135.913 Z M 152.782 147.534 L 160.424 147.534 C 161.7 147.534 162.778 147.42233333333334 163.658 147.199 C 164.53733333333332 146.97566666666668 165.26866666666666 146.64533333333333 165.852 146.208 C 166.43533333333335 145.77066666666667 166.92533333333333 145.14866666666666 167.322 144.342 C 167.71866666666668 143.53533333333334 167.917 142.66233333333335 167.917 141.723 C 167.917 140.55633333333336 167.591 139.54466666666667 166.939 138.688 C 166.287 137.83133333333333 165.35500000000002 137.22533333333334 164.143 136.87 C 165.08166666666665 136.40533333333335 165.78366666666665 135.79466666666667 166.249 135.038 C 166.71366666666665 134.28133333333332 166.946 133.47466666666665 166.946 132.618 C 166.946 131.69733333333332 166.684 130.81533333333334 166.16 129.972 C 165.636 129.12933333333334 164.91133333333332 128.505 163.986 128.099 C 163.06066666666666 127.69366666666666 161.83233333333334 127.491 160.301 127.491 L 152.782 127.491 L 152.782 147.534 Z"></path>
    </g>
    <g id="SvgjsG1032" featurekey="sloganFeature-0"
        transform="matrix(2.0663600877799073,0,0,2.0663600877799073,119.70852494513755,103.66737189459191)"
        fill="#292929">
        <path
            d="M4.9902 20.19531 c-2.2559 0 -4.0039 -0.88867 -4.3652 -2.793 l2.3535 -0.66406 c0.30273 1.0742 1.0645 1.4941 2.0117 1.4941 c0.69336 0 1.4453 -0.21484 1.4258 -1.0059 c-0.0097656 -1.0449 -1.5918 -1.1328 -3.1836 -1.6992 c-1.2012 -0.41992 -2.3535 -1.0645 -2.3535 -2.7539 c0 -2.0605 1.709 -3.0078 3.9355 -3.0078 c1.9531 0 3.584 0.74219 3.9746 2.6563 l-2.1777 0.48828 c-0.30273 -0.9375 -0.9668 -1.2695 -1.7871 -1.2695 c-0.74219 0 -1.377 0.26367 -1.377 0.88867 c0 0.79102 1.1621 0.94727 2.4219 1.2891 c1.5527 0.41992 3.252 1.0938 3.252 3.2422 c0 2.3047 -1.9629 3.1348 -4.1309 3.1348 z M15.77392890625 9.766 c2.2461 0 3.5938 1.25 3.5938 3.7598 l0 6.4746 l-2.8223 0 l0 -6.0156 c0 -1.4746 -0.82031 -1.9629 -1.8262 -1.9629 c-1.0449 0 -2.1875 0.51758 -2.207 2.4414 l0 5.5371 l-2.8125 0 l0 -15 l2.8125 0 l0 6.1621 c0.71289 -0.86914 1.8359 -1.3965 3.2617 -1.3965 z M25.3076046875 20.19531 c-3.1934 0 -5.498 -1.9434 -5.498 -5.2246 c0 -3.2617 2.2852 -5.2051 5.498 -5.2051 c3.2324 0 5.5078 1.9434 5.5078 5.2051 c0 3.2813 -2.2852 5.2246 -5.5078 5.2246 z M25.2783046875 17.959 c1.6309 0 2.7441 -1.1914 2.7441 -2.9883 s-1.1133 -2.9883 -2.7441 -2.9883 c-1.5723 0 -2.6758 1.1914 -2.6758 2.9883 s1.1035 2.9883 2.6758 2.9883 z M37.35112421875 9.766 c2.6465 0 4.834 1.9434 4.834 5.2344 s-2.1875 5.2344 -4.834 5.2344 c-1.3086 0 -2.4805 -0.50781 -3.0762 -1.4258 l0 6.0742 l-2.8125 0 l0 -14.922 l2.666 0 l0.078125 1.3477 c0.55664 -0.99609 1.7773 -1.543 3.1445 -1.543 z M36.71632421875 17.9004 c1.4746 0 2.6563 -1.0742 2.6563 -2.9004 s-1.1816 -2.9004 -2.6563 -2.9004 c-1.5039 0 -2.6758 1.1426 -2.6758 2.9004 s1.1719 2.9004 2.6758 2.9004 z M52.68799140625 9.766 c2.2461 0 3.5938 1.25 3.5938 3.7598 l0 6.4746 l-2.8223 0 l0 -6.0156 c0 -1.4746 -0.82031 -1.9629 -1.8262 -1.9629 c-1.0449 0 -2.1875 0.51758 -2.207 2.4414 l0 5.5371 l-2.8125 0 l0 -15 l2.8125 0 l0 6.1621 c0.71289 -0.86914 1.8359 -1.3965 3.2617 -1.3965 z M66.9868671875 14.834 l-0.029297 0.67383 l-7.4414 0 c0.11719 1.6699 1.2305 2.4707 2.5684 2.4707 c1.0059 0 1.7871 -0.46875 2.168 -1.3574 l2.5781 0.38086 c-0.66406 2.0313 -2.4707 3.1934 -4.7266 3.1934 c-3.2422 0 -5.3613 -1.9141 -5.3613 -5.2148 s2.1777 -5.2344 5.2734 -5.2344 c2.8418 0 4.9609 1.5723 4.9707 5.0879 z M62.0361671875 11.7383 c-1.2793 0 -2.168 0.5957 -2.4414 1.9336 l4.6094 0 c-0.14648 -1.2793 -1.0156 -1.9336 -2.168 -1.9336 z M70.37842734375 11.5527 c0.50781 -0.88867 1.8262 -1.709 3.2813 -1.709 l0 2.5098 c-2.1289 0 -3.1445 0.625 -3.1445 2.7539 l0 4.8926 l-2.832 0 l0 -10.039 l2.6953 0 l0 1.5918 z M83.310109375 14.834 l-0.029297 0.67383 l-7.4414 0 c0.11719 1.6699 1.2305 2.4707 2.5684 2.4707 c1.0059 0 1.7871 -0.46875 2.168 -1.3574 l2.5781 0.38086 c-0.66406 2.0313 -2.4707 3.1934 -4.7266 3.1934 c-3.2422 0 -5.3613 -1.9141 -5.3613 -5.2148 s2.1777 -5.2344 5.2734 -5.2344 c2.8418 0 4.9609 1.5723 4.9707 5.0879 z M78.359409375 11.7383 c-1.2793 0 -2.168 0.5957 -2.4414 1.9336 l4.6094 0 c-0.14648 -1.2793 -1.0156 -1.9336 -2.168 -1.9336 z"></path>
    </g>
</svg>